<?xml version="1.0" standalone="no"?>
<!DOCTYPE svg PUBLIC "-//W3C//DTD SVG 20010904//EN"
 "http://www.w3.org/TR/2001/REC-SVG-20010904/DTD/svg10.dtd">
<svg version="1.0" xmlns="http://www.w3.org/2000/svg"
 width="1024.000000pt" height="1024.000000pt" viewBox="0 0 1024.000000 1024.000000"
 preserveAspectRatio="xMidYMid meet">

<g transform="translate(0.000000,1024.000000) scale(0.100000,-0.100000)"
fill="#000000" stroke="none">
<path d="M625 6699 c-57 -16 -139 -74 -177 -124 -54 -71 -68 -121 -79 -285
-13 -185 -28 -1930 -18 -2031 9 -90 32 -142 88 -192 53 -48 104 -61 341 -87
107 -12 198 -24 202 -26 13 -8 393 -24 623 -25 296 -2 325 -5 325 -30 0 -10 9
-42 20 -70 10 -29 17 -56 14 -61 -3 -4 -94 -8 -203 -8 -179 0 -199 -2 -214
-18 -22 -24 -21 -55 1 -75 16 -15 50 -17 258 -17 l239 -1 44 -39 43 -40 -167
-2 -168 -3 -20 -27 -21 -28 21 -27 20 -28 389 0 c374 0 392 1 459 22 187 59
331 203 386 386 l21 67 2168 0 2168 0 22 -67 c56 -175 178 -305 346 -369 92
-36 248 -44 344 -19 189 49 351 200 410 384 l22 70 462 3 461 3 62 29 c109 50
189 158 219 295 65 299 -14 1260 -152 1836 -53 219 -59 199 64 203 l103 3 34
-34 c39 -39 57 -94 87 -262 11 -66 27 -128 36 -137 18 -21 82 -24 100 -6 17
17 15 50 -13 189 -40 199 -66 262 -132 323 -53 50 -100 60 -243 53 l-130 -6
-39 57 c-75 110 -179 187 -296 218 -41 11 -777 14 -4275 13 -2393 0 -4238 -5
-4255 -10z m7875 -176 l0 -73 -3841 0 c-3507 0 -3844 -1 -3875 -16 -18 -9 -43
-31 -54 -49 -18 -30 -20 -49 -20 -241 0 -228 7 -275 56 -364 38 -70 130 -153
201 -182 l58 -23 3734 -3 c2053 -1 3736 -4 3741 -7 4 -2 10 -23 13 -46 10 -78
74 -187 156 -270 168 -168 397 -258 790 -310 196 -26 181 -14 181 -152 l0 -88
-57 6 c-32 3 -141 17 -243 30 -102 13 -219 27 -261 30 -72 7 -76 6 -108 -21
-31 -26 -33 -31 -29 -80 8 -98 123 -247 231 -297 58 -28 153 -43 340 -53 123
-7 121 -5 87 -98 -12 -32 -38 -71 -62 -95 -69 -69 -82 -71 -568 -71 l-426 0
-16 84 c-61 324 -368 538 -678 472 -252 -53 -431 -249 -465 -508 l-6 -48
-2160 0 -2159 0 0 28 c-1 105 -67 257 -153 349 -119 127 -247 184 -415 184
-173 0 -290 -48 -408 -167 -89 -88 -138 -183 -162 -309 l-17 -88 -405 6 c-267
4 -443 12 -515 21 -60 8 -177 22 -260 31 -177 19 -210 32 -242 95 -21 40 -23
58 -23 192 l0 148 55 0 c72 0 119 20 140 60 14 26 16 60 13 203 -3 154 -5 175
-23 199 -29 38 -70 60 -127 67 l-49 6 1 385 c0 436 16 895 31 955 23 85 84
149 163 169 30 8 1187 11 3939 11 l3897 0 0 -72z m634 56 c195 -52 278 -198
365 -644 61 -312 136 -883 118 -901 -8 -8 -213 20 -347 47 -131 27 -274 77
-366 130 -88 50 -188 143 -227 209 -55 95 -57 120 -57 665 0 276 2 504 5 507
10 9 468 -2 509 -13z m-7316 -566 l-3 -318 -390 0 -390 0 -51 27 c-29 15 -68
46 -87 69 -60 69 -67 106 -67 336 l0 203 495 0 495 0 -2 -317z m1120 0 l-3
-318 -497 -3 -498 -2 0 320 0 320 500 0 500 0 -2 -317z m1074 1 c2 -174 1
-318 -1 -320 -2 -2 -217 -4 -478 -4 l-473 0 0 320 0 320 475 0 474 0 3 -316z
m1086 -1 l-3 -318 -477 -3 -478 -2 0 320 0 320 480 0 480 0 -2 -317z m1072 -3
l0 -320 -475 0 -475 0 0 320 0 320 475 0 475 0 0 -320z m1068 3 l-3 -318 -467
-3 -468 -2 0 320 0 320 470 0 470 0 -2 -317z m1262 -3 l0 -320 -570 0 -570 0
0 320 0 320 570 0 570 0 0 -320z m-7976 -1060 l26 -10 0 -140 0 -140 -45 0
-45 0 0 143 c0 79 3 147 7 150 9 10 27 9 57 -3z m8736 -329 c74 -11 171 -22
215 -25 44 -4 99 -9 123 -12 l42 -5 0 -70 0 -69 -102 0 c-135 0 -274 18 -318
40 -45 24 -140 128 -140 154 0 10 36 7 180 -13z m-6711 -469 c99 -50 105 -177
12 -239 -90 -60 -211 7 -211 117 0 106 105 171 199 122z m5501 -20 c50 -50 60
-96 31 -154 -25 -53 -65 -78 -123 -78 -104 0 -170 107 -120 198 25 47 68 72
126 72 43 0 53 -4 86 -38z"/>
<path d="M3396 5315 c-109 -39 -156 -179 -94 -282 23 -38 63 -63 150 -92 36
-12 74 -31 83 -41 23 -25 22 -70 -1 -87 -24 -17 -86 -17 -131 2 -19 8 -48 15
-64 15 -25 0 -33 -7 -51 -44 -11 -24 -18 -51 -15 -60 17 -43 173 -76 262 -56
110 25 165 91 165 201 0 103 -40 146 -188 199 -92 33 -119 90 -56 118 33 16
53 15 104 -3 38 -13 46 -14 66 0 29 19 50 80 34 100 -33 40 -186 58 -264 30z"/>
<path d="M1796 5304 c-9 -24 -7 -607 3 -622 5 -9 27 -12 72 -10 l64 3 3 118 3
117 87 0 c55 0 92 4 100 12 7 7 12 33 12 58 0 25 -5 51 -12 58 -8 8 -45 12
-100 12 l-88 0 0 70 0 69 113 3 112 3 3 63 3 62 -184 0 c-159 0 -186 -2 -191
-16z"/>
<path d="M2242 4998 l3 -323 183 -3 c142 -2 182 0 183 10 0 7 1 29 1 48 1 74
9 69 -113 72 l-110 3 1 241 c0 132 -2 248 -6 257 -5 14 -20 17 -75 17 l-69 0
2 -322z"/>
<path d="M2865 5303 c-32 -81 -205 -586 -207 -605 -3 -21 1 -23 56 -26 70 -4
88 9 106 74 l13 44 108 0 107 0 12 -37 c24 -74 34 -83 100 -83 32 0 61 4 65 9
6 10 -201 606 -218 629 -6 7 -34 12 -72 12 -51 0 -64 -3 -70 -17z m113 -290
l31 -93 -69 0 -69 0 15 48 c9 26 23 71 32 100 8 29 19 49 22 45 4 -5 21 -50
38 -100z"/>
<path d="M3785 5307 c-3 -7 -4 -152 -3 -322 l3 -310 64 -3 c45 -2 67 1 72 10
5 7 9 68 9 136 l0 122 105 0 104 0 3 -132 3 -133 62 -3 c53 -2 63 0 72 16 10
20 13 535 3 601 l-4 32 -67 -3 -66 -3 -3 -122 -3 -123 -104 0 -105 0 0 109 c0
60 -3 116 -6 125 -8 20 -132 23 -139 3z"/>
<path d="M4569 5303 c-1 -10 -3 -29 -4 -43 -1 -14 1 -35 6 -47 8 -21 15 -23
89 -23 l80 0 2 -257 3 -258 70 0 70 0 3 257 2 257 88 3 87 3 0 60 0 60 -247 3
c-231 2 -248 1 -249 -15z"/>
<path d="M5142 4998 l3 -323 64 -3 c45 -2 67 1 72 10 5 7 9 57 9 111 l0 97 34
0 c33 0 35 -2 87 -107 l54 -108 64 -3 c35 -2 68 1 73 6 6 6 -12 56 -49 134
l-60 124 37 35 c66 64 78 181 26 260 -15 22 -44 46 -73 60 -43 21 -65 24 -196
27 l-147 4 2 -324z m277 166 c52 -66 -1 -144 -98 -144 l-30 0 -3 85 -3 85 57
0 c49 0 59 -3 77 -26z"/>
<path d="M5871 5298 c-86 -236 -211 -610 -206 -618 3 -5 32 -10 64 -10 67 0
82 12 102 78 l12 42 108 0 108 0 12 -42 c19 -67 33 -78 100 -78 32 0 61 4 64
10 3 5 -21 85 -54 177 -32 93 -80 229 -107 303 -26 74 -52 141 -57 148 -6 7
-34 12 -73 12 -58 0 -65 -2 -73 -22z m117 -285 l31 -93 -71 0 c-52 0 -69 3
-65 13 2 6 17 51 33 99 15 49 31 85 35 80 3 -4 20 -49 37 -99z"/>
<path d="M6183 5305 c-6 -17 179 -574 203 -612 13 -20 23 -23 78 -23 39 0 67
5 73 13 17 22 214 617 208 627 -9 15 -130 13 -143 -2 -8 -11 -72 -216 -124
-398 l-10 -34 -25 79 c-13 44 -45 144 -69 223 l-45 142 -70 0 c-53 0 -71 -4
-76 -15z"/>
<path d="M6816 5304 c-3 -9 -6 -150 -6 -314 0 -241 3 -300 14 -309 9 -8 69
-11 192 -9 l179 3 0 60 0 60 -117 3 -118 3 0 64 0 64 103 3 102 3 0 60 0 60
-102 3 -103 3 0 64 0 64 108 3 107 3 3 63 3 62 -179 0 c-155 0 -181 -2 -186
-16z"/>
<path d="M7285 5308 c-3 -7 -4 -153 -3 -323 l3 -310 185 0 185 0 0 60 0 60
-112 3 -113 3 -2 257 -3 257 -68 3 c-48 2 -69 -1 -72 -10z"/>
</g>
</svg>
